# xmcd
#
# Track frame offsets:
#	150
#	21105
#	39945
#	60755
#	77270
#	102370
#	119507
#	140190
#	156680
#	176850
#	195417
#	217667
#
# Disc length: 3170 seconds
#
# Revision: 6
# Processed by: cddbd v1.5.2PL0 Copyright (c) Steve Scherf et al.
# Submitted via: audiograbber 1.83.01
#
DISCID=9b0c600c
DTITLE=Cyndi Lauper - Hat Full Of Stars
DYEAR=1993
DGENRE=Pop
TTITLE0=That's What I Think
TTITLE1=Product Of Misery
TTITLE2=Who Let In The Rain
TTITLE3=Lies
TTITLE4=Broken Glass
TTITLE5=Sally's Pigeons
TTITLE6=Feels Like Christmas
TTITLE7=Dear John
TTITLE8=Like I Used To
TTITLE9=Someone Like Me
TTITLE10=A Part Hate
TTITLE11=Hat Full Of Stars
EXTD=MARO\n
EXTT0=
EXTT1=
EXTT2=
EXTT3=
EXTT4=
EXTT5=
EXTT6=
EXTT7=
EXTT8=
EXTT9=
EXTT10=
EXTT11=
PLAYORDER=
